<svg width="1000" height="285" viewBox="0 0 1000 285" xmlns="http://www.w3.org/2000/svg"><path d="M830.758 241.998c0 .778-.636 1.415-1.414 1.415h-8.016a1.418 1.418 0 0 1-1.414-1.415V238.9c0-.779.636-1.414 1.414-1.414h8.016c.778 0 1.414.635 1.414 1.414v3.098zm9.43-4.512a1.42 1.42 0 0 0 1.415-1.414v-3.1c0-.779.636-1.414 1.414-1.414h2.595c.777 0 1.414-.636 1.414-1.414v-3.1c0-.778.636-1.413 1.414-1.413h2.593c.778 0 1.414-.637 1.414-1.414v-3.102c0-.777.637-1.414 1.414-1.414h2.595c.778 0 1.414-.636 1.414-1.414v-3.098c0-.779.637-1.414 1.414-1.414h2.594c.778 0 1.414-.636 1.414-1.414v-3.098c0-.78.636-1.414 1.414-1.414h2.595a1.42 1.42 0 0 0 1.414-1.414v-3.101c0-.78.636-1.415 1.414-1.415h2.593c.778 0 1.414-.636 1.414-1.414v-3.1c0-.778-.636-1.413-1.414-1.413h-18.86c-.778 0-1.415.635-1.415 1.414v3.1c0 .777-.636 1.413-1.414 1.413h-2.593c-.778 0-1.414.635-1.414 1.415v3.1a1.42 1.42 0 0 1-1.414 1.415h-2.595c-.778 0-1.414.635-1.414 1.414v3.098c0 .778-.637 1.414-1.414 1.414h-2.594c-.777 0-1.414.635-1.414 1.414v3.098c0 .778-.636 1.414-1.414 1.414h-2.595c-.777 0-1.414.637-1.414 1.414v3.102c0 .777-.636 1.414-1.414 1.414h-2.593c-.778 0-1.414.635-1.414 1.414v3.1c0 .777-.637 1.413-1.414 1.413h-2.595a1.418 1.418 0 0 1-1.414-1.414v-62.376c0-.779-.637-1.414-1.414-1.414h-13.438c-.778 0-1.414.635-1.414 1.414v115.725c0 .778.636 1.414 1.414 1.414H818.5c.777 0 1.414-.636 1.414-1.414v-32.739c0-.777.636-1.414 1.414-1.414h2.595c.777 0 1.414.637 1.414 1.414v3.101c0 .778.636 1.415 1.414 1.415h2.593c.778 0 1.414.634 1.414 1.414v3.098c0 .778.637 1.414 1.414 1.414h2.595c.778 0 1.414.635 1.414 1.414v3.1a1.42 1.42 0 0 0 1.414 1.414h2.594c.777 0 1.414.635 1.414 1.414v3.1c0 .777.636 1.413 1.414 1.413h2.595c.777 0 1.414.635 1.414 1.415v3.1c0 .777.636 1.413 1.414 1.413h2.593c.778 0 1.414.637 1.414 1.414v3.1c0 .778.637 1.414 1.414 1.414h18.861c.778 0 1.414-.636 1.414-1.414v-3.1c0-.777-.636-1.414-1.414-1.414h-2.593a1.418 1.418 0 0 1-1.414-1.414v-3.1c0-.779-.637-1.414-1.414-1.414h-2.595a1.418 1.418 0 0 1-1.414-1.414v-3.1c0-.778-.636-1.413-1.414-1.413h-2.594a1.42 1.42 0 0 1-1.414-1.414v-3.1c0-.78-.636-1.414-1.414-1.414h-2.595a1.418 1.418 0 0 1-1.414-1.414v-3.098c0-.78-.636-1.414-1.414-1.414h-2.593a1.418 1.418 0 0 1-1.414-1.415v-3.1c0-.778-.637-1.415-1.414-1.415h-2.595a1.418 1.418 0 0 1-1.414-1.414v-3.1c0-.779-.637-1.413-1.414-1.413h-2.594a1.418 1.418 0 0 1-1.414-1.415V238.9c0-.779.637-1.414 1.414-1.414h2.594zm117.848 47.421a1.418 1.418 0 0 1-1.414-1.414v-3.1c0-.777-.636-1.414-1.414-1.414h-2.594a1.418 1.418 0 0 1-1.414-1.414v-3.1c0-.779-.636-1.414-1.414-1.414h-2.594a1.418 1.418 0 0 1-1.415-1.414v-9.027c0-.78.637-1.414 1.415-1.414h2.594c.778 0 1.414-.636 1.414-1.414v-3.098c0-.78.637-1.414 1.414-1.414h2.594c.778 0 1.414.634 1.414 1.414v3.098c0 .778.636 1.414 1.414 1.414h2.595c.778 0 1.414.635 1.414 1.414v3.1a1.42 1.42 0 0 0 1.414 1.414h2.593c.778 0 1.414.635 1.414 1.414v3.1c0 .777.637 1.413 1.415 1.413h8.016c.778 0 1.414-.636 1.414-1.414v-3.1c0-.778.636-1.413 1.414-1.413h2.595a1.42 1.42 0 0 0 1.414-1.414v-9.026c0-.78-.638-1.414-1.414-1.414h-2.595a1.418 1.418 0 0 1-1.414-1.415v-3.1c0-.778-.636-1.415-1.414-1.415h-2.594a1.418 1.418 0 0 1-1.414-1.414v-3.1c0-.779-.636-1.413-1.414-1.413h-8.016a1.418 1.418 0 0 1-1.414-1.415V238.9c0-.779-.636-1.414-1.414-1.414h-2.595a1.42 1.42 0 0 1-1.414-1.414v-3.1c0-.779-.636-1.414-1.414-1.414h-2.594a1.418 1.418 0 0 1-1.414-1.414v-3.1c0-.778-.636-1.413-1.414-1.413h-2.594a1.418 1.418 0 0 1-1.415-1.414v-14.954c0-.78.637-1.414 1.415-1.414h2.594a1.42 1.42 0 0 0 1.414-1.414v-3.101c0-.78.637-1.415 1.414-1.415h2.594c.778 0 1.414-.636 1.414-1.414v-3.1c0-.778.636-1.413 1.414-1.413h29.705c.777 0 1.414.635 1.414 1.414v3.1c0 .777.637 1.413 1.415 1.413h2.594c.777 0 1.414.635 1.414 1.415v14.953a1.42 1.42 0 0 1-1.414 1.414h-8.016a1.418 1.418 0 0 1-1.414-1.414v-3.098c0-.779-.638-1.414-1.414-1.414h-2.595a1.418 1.418 0 0 1-1.414-1.414v-3.098c0-.78-.636-1.414-1.414-1.414h-8.016c-.778 0-1.415.635-1.415 1.414v3.098c0 .778-.636 1.414-1.414 1.414h-2.593c-.778 0-1.414.635-1.414 1.414v3.098c0 .778.636 1.414 1.414 1.414h2.593c.778 0 1.414.637 1.414 1.414v3.102c0 .777.637 1.414 1.415 1.414h2.594c.778 0 1.414.635 1.414 1.414v3.1c0 .777.637 1.413 1.414 1.413h8.017c.776 0 1.414.635 1.414 1.414v3.1a1.42 1.42 0 0 0 1.414 1.414h2.593c.777 0 1.414.635 1.414 1.414v3.098c0 .778.637 1.415 1.415 1.415h2.594c.777 0 1.414.634 1.414 1.414v3.1c0 .777.637 1.413 1.415 1.413h2.593a1.42 1.42 0 0 1 1.414 1.414v20.883a1.42 1.42 0 0 1-1.414 1.414h-2.593c-.778 0-1.415.635-1.415 1.415v3.1a1.42 1.42 0 0 1-1.414 1.413h-2.594c-.778 0-1.415.637-1.415 1.414v3.1a1.42 1.42 0 0 1-1.414 1.414h-29.705zm-280.618 0a1.42 1.42 0 0 1-1.414-1.414v-86.087c0-.78.638-1.414 1.414-1.414h13.438c.778 0 1.414.635 1.414 1.414v9.029a1.42 1.42 0 0 0 1.414 1.414h2.595a1.42 1.42 0 0 0 1.414-1.414v-3.101c0-.78.638-1.415 1.414-1.415h2.593c.778 0 1.414-.636 1.414-1.414v-3.1c0-.778.638-1.413 1.414-1.413h18.861c.778 0 1.414.635 1.414 1.414v3.1c0 .777.637 1.413 1.414 1.413h2.595c.778 0 1.414.635 1.414 1.415v3.1a1.42 1.42 0 0 0 1.414 1.415h2.594c.778 0 1.414.635 1.414 1.414v9.024c0 .778-.636 1.414-1.414 1.414h-2.594c-.777 0-1.414.637-1.414 1.414v3.102c0 .777-.636 1.414-1.414 1.414h-2.595a1.418 1.418 0 0 1-1.414-1.414v-3.102c0-.777-.636-1.414-1.414-1.414h-2.593a1.418 1.418 0 0 1-1.414-1.414v-3.098c0-.779-.637-1.414-1.414-1.414h-13.44c-.776 0-1.414.635-1.414 1.414v3.098c0 .778-.636 1.414-1.414 1.414h-2.593a1.42 1.42 0 0 0-1.414 1.414v3.102c0 .777-.637 1.414-1.414 1.414h-2.595c-.776 0-1.414.635-1.414 1.414v56.448c0 .778-.636 1.414-1.414 1.414h-13.438zm-103.87-77.058a1.42 1.42 0 0 0 1.415-1.414v-3.101c0-.78-.637-1.415-1.414-1.415h-8.018c-.776 0-1.414.635-1.414 1.415v3.1a1.42 1.42 0 0 0 1.414 1.415h8.018zm5.422 59.275a1.42 1.42 0 0 0 1.414-1.414v-3.1c0-.78.638-1.414 1.414-1.414h2.594c.778 0 1.414-.636 1.414-1.414v-38.667c0-.777-.636-1.414-1.414-1.414h-2.594a1.42 1.42 0 0 1-1.414-1.414v-3.098c0-.779-.636-1.414-1.414-1.414h-18.86c-.777 0-1.415.635-1.415 1.414v3.098c0 .778-.636 1.414-1.414 1.414h-2.592c-.778 0-1.414.637-1.414 1.414v38.667c0 .778.636 1.414 1.414 1.414h2.592c.778 0 1.414.635 1.414 1.414v3.1a1.42 1.42 0 0 0 1.414 1.414h18.861zm-18.86 17.783a1.42 1.42 0 0 1-1.415-1.414v-3.1c0-.777-.636-1.414-1.414-1.414h-8.015a1.418 1.418 0 0 1-1.414-1.414v-3.1c0-.779-.638-1.414-1.414-1.414h-2.595a1.418 1.418 0 0 1-1.414-1.414v-9.027c0-.78-.638-1.414-1.414-1.414h-2.593a1.418 1.418 0 0 1-1.414-1.414v-38.667c0-.777.636-1.414 1.414-1.414h2.593a1.42 1.42 0 0 0 1.414-1.414v-9.024c0-.78.637-1.414 1.414-1.414h2.595a1.42 1.42 0 0 0 1.414-1.414v-3.101c0-.78.636-1.415 1.414-1.415h8.015c.778 0 1.414-.636 1.414-1.414v-3.1c0-.778.638-1.413 1.414-1.413h18.861c.778 0 1.414.635 1.414 1.414v3.1a1.42 1.42 0 0 0 1.414 1.413h8.017c.777 0 1.414.635 1.414 1.415v3.1a1.42 1.42 0 0 0 1.414 1.415h2.595c.777 0 1.414.635 1.414 1.414v9.024c0 .778.636 1.414 1.414 1.414h2.593c.778 0 1.414.637 1.414 1.414v38.667c0 .778-.636 1.414-1.414 1.414h-2.593c-.778 0-1.414.635-1.414 1.414v9.027c0 .778-.637 1.414-1.414 1.414h-2.595c-.776 0-1.414.635-1.414 1.415v3.1c0 .777-.637 1.413-1.414 1.413h-8.017a1.42 1.42 0 0 0-1.414 1.414v3.1c0 .778-.636 1.414-1.414 1.414h-18.86zm-149.392-28.223c0-.78-.636-1.414-1.414-1.414h-2.595c-.777 0-1.414.634-1.414 1.414v9.026a1.42 1.42 0 0 0 1.414 1.414h2.595a1.42 1.42 0 0 0 1.414-1.414v-9.026zm-5.423-17.784c0-.779-.636-1.414-1.414-1.414h-2.594c-.778 0-1.415.635-1.415 1.414v9.026c0 .778.637 1.414 1.415 1.414h2.594c.778 0 1.414-.636 1.414-1.414V238.9zm-5.423-17.785c0-.777-.636-1.414-1.414-1.414h-2.593c-.778 0-1.414.637-1.414 1.414v3.102c0 .777.636 1.414 1.414 1.414h2.593c.778 0 1.414-.637 1.414-1.414v-3.102zm-5.421-17.781c0-.78-.636-1.415-1.414-1.415h-2.594c-.777 0-1.414.635-1.414 1.415v3.1a1.42 1.42 0 0 0 1.414 1.415h2.594a1.42 1.42 0 0 0 1.414-1.414v-3.101zm47.385 28.224c.778 0 1.414.635 1.414 1.414v14.954c0 .778.637 1.414 1.415 1.414h2.594c.778 0 1.414.637 1.414 1.414v14.956a1.42 1.42 0 0 0 1.415 1.414h2.594a1.42 1.42 0 0 0 1.414-1.414v-14.956c0-.777.637-1.414 1.414-1.414h2.594c.778 0 1.414-.636 1.414-1.414v-14.954c0-.779.636-1.414 1.414-1.414h2.593c.778 0 1.415-.636 1.415-1.414V215.19c0-.779.636-1.414 1.414-1.414h2.594c.778 0 1.414-.636 1.414-1.414v-14.955c0-.78.637-1.414 1.415-1.414h13.437c.777 0 1.415.635 1.415 1.414v14.955a1.42 1.42 0 0 1-1.415 1.414h-2.593c-.778 0-1.414.635-1.414 1.414v14.955a1.42 1.42 0 0 1-1.414 1.414H477.2c-.778 0-1.415.635-1.415 1.414v20.883a1.42 1.42 0 0 1-1.414 1.415h-2.594c-.778 0-1.415.634-1.415 1.414v14.953c0 .778-.636 1.414-1.414 1.414h-2.594c-.778 0-1.414.635-1.414 1.415v9.027c0 .778-.637 1.414-1.415 1.414h-18.86a1.418 1.418 0 0 1-1.415-1.414v-9.027c0-.78-.636-1.415-1.414-1.415h-2.593a1.418 1.418 0 0 1-1.414-1.414v-14.953c0-.78-.636-1.414-1.414-1.414h-2.594c-.777 0-1.414.634-1.414 1.414v14.953c0 .778-.636 1.414-1.414 1.414H428.4c-.778 0-1.415.635-1.415 1.415v9.027c0 .778-.636 1.414-1.414 1.414h-18.86a1.418 1.418 0 0 1-1.415-1.414v-9.027c0-.78-.636-1.415-1.414-1.415h-2.594a1.418 1.418 0 0 1-1.415-1.414v-14.953c0-.78-.636-1.414-1.414-1.414h-2.593a1.418 1.418 0 0 1-1.414-1.415v-20.883c0-.779-.636-1.414-1.414-1.414h-2.594a1.418 1.418 0 0 1-1.414-1.414V215.19c0-.779-.636-1.414-1.414-1.414h-2.595a1.418 1.418 0 0 1-1.414-1.414v-14.955c0-.78.637-1.414 1.414-1.414h13.438c.778 0 1.414.635 1.414 1.414v14.955c0 .778.637 1.414 1.415 1.414h2.594c.778 0 1.414.635 1.414 1.414v14.955c0 .778.637 1.414 1.414 1.414h2.595c.778 0 1.414.635 1.414 1.414v14.954c0 .778.637 1.414 1.414 1.414h2.594c.778 0 1.414.637 1.414 1.414v14.956a1.42 1.42 0 0 0 1.414 1.414h2.593a1.42 1.42 0 0 0 1.414-1.414v-14.956c0-.777.637-1.414 1.415-1.414h2.594c.778 0 1.414-.636 1.414-1.414v-14.954c0-.779.637-1.414 1.415-1.414h2.594c.778 0 1.414-.636 1.414-1.414v-9.029c0-.777.637-1.414 1.414-1.414h2.594c.778 0 1.414.637 1.414 1.414v9.03c0 .777.636 1.413 1.414 1.413h2.593zm-152.603 53.35a1.418 1.418 0 0 1-1.414-1.415v-68.304c0-.779-.637-1.414-1.414-1.414h-8.017a1.418 1.418 0 0 1-1.414-1.414v-14.955c0-.78.636-1.414 1.414-1.414h8.017c.777 0 1.414-.637 1.414-1.414v-26.81c0-.779.636-1.414 1.414-1.414h13.438c.777 0 1.414.635 1.414 1.414v26.81c0 .777.636 1.414 1.414 1.414h18.86c.778 0 1.415.635 1.415 1.414v14.955c0 .778-.637 1.414-1.414 1.414h-18.861c-.778 0-1.414.635-1.414 1.414v68.304c0 .778-.637 1.414-1.414 1.414h-13.438zm-107.935-53.35c.778 0 1.414-.636 1.414-1.414v-9.029c0-.777-.636-1.414-1.414-1.414h-2.595a1.418 1.418 0 0 1-1.414-1.414v-3.098c0-.779-.636-1.414-1.414-1.414h-18.86c-.779 0-1.415.635-1.415 1.414v3.098c0 .778-.636 1.414-1.414 1.414h-2.593c-.778 0-1.414.637-1.414 1.414v9.03c0 .777.636 1.413 1.414 1.413h29.705zm-24.284 53.35a1.418 1.418 0 0 1-1.414-1.415v-3.1c0-.777-.636-1.414-1.414-1.414h-8.016a1.418 1.418 0 0 1-1.414-1.414v-3.1c0-.779-.637-1.414-1.414-1.414h-2.594a1.418 1.418 0 0 1-1.414-1.414v-9.027c0-.78-.636-1.414-1.414-1.414h-2.595a1.418 1.418 0 0 1-1.414-1.414v-38.667c0-.777.636-1.414 1.414-1.414h2.595c.778 0 1.414-.636 1.414-1.414v-9.024c0-.78.636-1.414 1.414-1.414h2.594a1.42 1.42 0 0 0 1.414-1.414v-3.101c0-.78.636-1.415 1.414-1.415h8.016c.778 0 1.414-.636 1.414-1.414v-3.1c0-.778.636-1.413 1.414-1.413h18.861c.778 0 1.414.635 1.414 1.414v3.1c0 .777.637 1.413 1.414 1.413h8.017c.777 0 1.414.635 1.414 1.415v3.1a1.42 1.42 0 0 0 1.414 1.415h2.595c.777 0 1.414.635 1.414 1.414v9.024c0 .778.636 1.414 1.414 1.414h2.593c.778 0 1.414.637 1.414 1.414v20.883c0 .778-.636 1.415-1.414 1.415h-45.971c-.778 0-1.414.634-1.414 1.414v14.955c0 .778.636 1.414 1.414 1.414h2.593c.778 0 1.414.635 1.414 1.414v3.1a1.42 1.42 0 0 0 1.414 1.414h18.861a1.42 1.42 0 0 0 1.414-1.414v-3.1c0-.78.637-1.414 1.414-1.414h2.595c.778 0 1.414-.636 1.414-1.414v-3.098c0-.78.636-1.414 1.414-1.414h13.438c.778 0 1.414.634 1.414 1.414v9.026a1.42 1.42 0 0 1-1.414 1.414h-2.593c-.778 0-1.414.635-1.414 1.414v3.1c0 .777-.637 1.413-1.414 1.413h-2.595c-.778 0-1.414.635-1.414 1.415v3.1c0 .777-.637 1.413-1.414 1.413h-8.017c-.777 0-1.414.637-1.414 1.414v3.1c0 .778-.636 1.414-1.414 1.414h-18.86zm-98.784-5.929a1.42 1.42 0 0 0 1.414-1.414v-50.52c0-.78-.638-1.414-1.414-1.414h-2.593c-.778 0-1.414.635-1.414 1.414v50.52c0 .778.636 1.414 1.414 1.414h2.593zm-20.275-75.645c0-.78-.638-1.415-1.414-1.415h-2.593c-.778 0-1.414.635-1.414 1.415v3.1a1.42 1.42 0 0 0 1.414 1.415h2.593a1.42 1.42 0 0 0 1.414-1.414v-3.101zm-36.54 81.573c-.78 0-1.415-.636-1.415-1.414v-86.087c0-.78.635-1.414 1.414-1.414h13.438c.778 0 1.414.635 1.414 1.414v9.029a1.42 1.42 0 0 0 1.414 1.414h2.595a1.42 1.42 0 0 0 1.414-1.414v-3.101c0-.78.635-1.415 1.414-1.415h2.594c.777 0 1.414-.636 1.414-1.414v-3.1c0-.778.636-1.413 1.414-1.413h13.439c.776 0 1.414.635 1.414 1.414v3.1c0 .777.636 1.413 1.414 1.413h8.016c.777 0 1.415.635 1.415 1.415v3.1a1.42 1.42 0 0 0 1.414 1.415h2.593c.776 0 1.414.635 1.414 1.414v9.024c0 .778.636 1.414 1.414 1.414h2.595a1.42 1.42 0 0 1 1.414 1.414v62.378a1.42 1.42 0 0 1-1.414 1.414h-13.44a1.418 1.418 0 0 1-1.413-1.414v-62.378a1.42 1.42 0 0 0-1.414-1.414h-2.594a1.418 1.418 0 0 1-1.414-1.414v-3.098c0-.779-.638-1.414-1.414-1.414h-13.44c-.777 0-1.413.635-1.413 1.414v3.098c0 .778-.637 1.414-1.414 1.414h-2.594c-.78 0-1.414.637-1.414 1.414v3.102c0 .777-.636 1.414-1.414 1.414H17.68c-.778 0-1.414.635-1.414 1.414v56.448c0 .778-.636 1.414-1.414 1.414H1.414zM316.957 36.893c0-.779-.636-1.414-1.414-1.414h-8.016c-.776 0-1.414.635-1.414 1.414v3.1a1.42 1.42 0 0 0 1.414 1.414h8.016c.778 0 1.414-.637 1.414-1.414v-3.1zm-41.962 81.574a1.42 1.42 0 0 1-1.414-1.414V30.965c0-.779.636-1.414 1.414-1.414h13.438c.777 0 1.414.635 1.414 1.414v9.028a1.42 1.42 0 0 0 1.414 1.414h2.593c.778 0 1.414-.637 1.414-1.414v-3.1c0-.779.638-1.414 1.414-1.414h2.595c.778 0 1.414-.636 1.414-1.414v-3.1c0-.779.638-1.414 1.414-1.414h18.861c.778 0 1.414.635 1.414 1.414v3.1c0 .778.637 1.414 1.414 1.414h2.594c.778 0 1.414.635 1.414 1.414v3.1c0 .777.636 1.414 1.414 1.414h2.595c.778 0 1.414.636 1.414 1.414v9.026c0 .778-.636 1.414-1.414 1.414h-2.595c-.778 0-1.414.636-1.414 1.414v3.101a1.42 1.42 0 0 1-1.414 1.414h-2.594a1.42 1.42 0 0 1-1.414-1.414v-3.1c0-.779-.636-1.415-1.414-1.415h-2.595a1.42 1.42 0 0 1-1.414-1.414v-3.098c0-.78-.636-1.414-1.414-1.414h-13.438c-.776 0-1.414.635-1.414 1.414v3.098c0 .778-.636 1.414-1.414 1.414h-2.595a1.42 1.42 0 0 0-1.414 1.414v3.101a1.42 1.42 0 0 1-1.414 1.414h-2.593c-.776 0-1.414.635-1.414 1.414v56.449a1.42 1.42 0 0 1-1.414 1.414h-13.438zm-128.152 0a1.42 1.42 0 0 1-1.414-1.414v-3.1c0-.78-.638-1.414-1.414-1.414h-2.595a1.418 1.418 0 0 1-1.414-1.414v-3.1c0-.779-.638-1.414-1.414-1.414H136a1.418 1.418 0 0 1-1.414-1.414V30.965c0-.779.636-1.414 1.414-1.414h13.438c.776 0 1.414.635 1.414 1.414v62.376c0 .778.636 1.414 1.414 1.414h2.595c.776 0 1.414.635 1.414 1.415v3.098c0 .778.636 1.414 1.414 1.414h13.436c.778 0 1.414-.636 1.414-1.414V96.17c0-.78.638-1.415 1.414-1.415h2.595c.778 0 1.414-.636 1.414-1.414v-3.098c0-.779.638-1.414 1.414-1.414h2.594a1.42 1.42 0 0 0 1.414-1.414v-56.45c0-.779.638-1.414 1.414-1.414h13.44c.777 0 1.413.635 1.413 1.414v86.088a1.42 1.42 0 0 1-1.414 1.414h-13.44a1.42 1.42 0 0 1-1.413-1.414v-9.028c0-.779-.637-1.414-1.414-1.414h-2.594c-.776 0-1.414.635-1.414 1.414v3.1c0 .778-.636 1.414-1.414 1.414h-2.595c-.776 0-1.414.635-1.414 1.414v3.1a1.42 1.42 0 0 1-1.414 1.414h-24.28zM58.477 88.829a1.42 1.42 0 0 0 1.415-1.414v-26.81c0-.78-.637-1.415-1.415-1.415h-2.593c-.776 0-1.414.635-1.414 1.414v26.811a1.42 1.42 0 0 0 1.414 1.414h2.593zm-16.266 11.853c.778 0 1.415-.636 1.415-1.414V96.17c0-.78.637-1.415 1.414-1.415h2.593c.778 0 1.414-.636 1.414-1.414V54.675c0-.778-.636-1.414-1.414-1.414H45.04a1.42 1.42 0 0 1-1.414-1.414v-3.098c0-.78-.637-1.414-1.415-1.414H23.352c-.778 0-1.414.635-1.414 1.414v3.098a1.42 1.42 0 0 1-1.414 1.414h-2.595c-.778 0-1.414.636-1.414 1.414v38.666c0 .778.636 1.414 1.414 1.414h2.595c.776 0 1.414.635 1.414 1.415v3.098c0 .778.636 1.414 1.414 1.414h18.86zm-18.859 17.785a1.42 1.42 0 0 1-1.414-1.414v-3.1c0-.78-.638-1.414-1.414-1.414h-8.017a1.418 1.418 0 0 1-1.414-1.414v-3.1c0-.779-.637-1.414-1.414-1.414H7.084a1.418 1.418 0 0 1-1.414-1.414V96.17c0-.78-.637-1.415-1.414-1.415H1.663a1.418 1.418 0 0 1-1.414-1.414V54.675c0-.778.636-1.414 1.414-1.414h2.593a1.42 1.42 0 0 0 1.414-1.414V42.82c0-.778.637-1.414 1.414-1.414H9.68a1.42 1.42 0 0 0 1.414-1.414v-3.1c0-.779.637-1.414 1.414-1.414h8.017a1.42 1.42 0 0 0 1.414-1.414v-3.1c0-.779.636-1.414 1.414-1.414h18.86c.777 0 1.414.635 1.414 1.414v3.1a1.42 1.42 0 0 0 1.414 1.414h8.016c.778 0 1.414.635 1.414 1.414v3.1a1.42 1.42 0 0 0 1.414 1.414h2.593c.778 0 1.415.636 1.415 1.414v9.026a1.42 1.42 0 0 0 1.414 1.414H63.9c.778 0 1.415.636 1.415 1.414v38.666c0 .778-.637 1.414-1.415 1.414h-2.594c-.777 0-1.414.635-1.414 1.415v9.027c0 .778-.637 1.414-1.415 1.414h-2.593c-.776 0-1.414.635-1.414 1.414v3.1c0 .778-.636 1.414-1.414 1.414H45.04c-.777 0-1.414.635-1.414 1.414v3.1a1.42 1.42 0 0 1-1.415 1.414H23.352zm882.044-108.25c0 .777-.637 1.414-1.414 1.414h-3.09a1.418 1.418 0 0 1-1.414-1.414V7.124a1.42 1.42 0 0 1 1.414-1.414h3.09a1.42 1.42 0 0 1 1.414 1.414v3.093zM897.02 0a1.42 1.42 0 0 0-1.414 1.414v20.883c0 .778-.636 1.414-1.414 1.414H877.54c-.778 0-1.414.636-1.414 1.414v20.882c0 .778-.636 1.414-1.414 1.414h-16.65a1.42 1.42 0 0 0-1.415 1.414v68.304c0 .778.636 1.414 1.414 1.414h16.65c.779 0 1.415-.636 1.415-1.414V96.257c0-.778.636-1.414 1.414-1.414h16.652a1.42 1.42 0 0 0 1.414-1.414V72.546a1.42 1.42 0 0 1 1.414-1.414h16.654c.778 0 1.414-.636 1.414-1.414V1.414c0-.778-.636-1.414-1.414-1.414H897.02zm-85.17 10.217c0 .777-.636 1.414-1.413 1.414h-3.093a1.42 1.42 0 0 1-1.414-1.414V7.124a1.42 1.42 0 0 1 1.414-1.414h3.093a1.42 1.42 0 0 1 1.414 1.414v3.093zM803.475 0c-.778 0-1.414.636-1.414 1.414v20.883c0 .778-.635 1.414-1.414 1.414h-16.652c-.778 0-1.415.636-1.415 1.414v20.882c0 .778-.636 1.414-1.414 1.414h-16.65a1.42 1.42 0 0 0-1.414 1.414v68.304c0 .778.636 1.414 1.414 1.414h16.65c.778 0 1.414-.636 1.414-1.414V96.257c0-.778.637-1.414 1.415-1.414h16.652c.779 0 1.414-.638 1.414-1.414V72.546c0-.778.636-1.414 1.414-1.414h16.652c.78 0 1.414-.636 1.414-1.414V1.414c0-.778-.635-1.414-1.414-1.414h-16.652zM717.9 10.217c0 .777-.636 1.414-1.414 1.414h-3.09c-.78 0-1.414-.637-1.414-1.414V7.124c0-.776.635-1.414 1.414-1.414h3.09a1.42 1.42 0 0 1 1.414 1.414v3.093zM709.524 0c-.777 0-1.414.636-1.414 1.414v20.883c0 .778-.636 1.414-1.414 1.414h-16.653c-.778 0-1.414.636-1.414 1.414v20.882c0 .778-.635 1.414-1.414 1.414h-16.65a1.42 1.42 0 0 0-1.414 1.414v68.304c0 .778.637 1.414 1.414 1.414h16.65c.779 0 1.414-.636 1.414-1.414V96.257c0-.778.636-1.414 1.414-1.414h16.653a1.42 1.42 0 0 0 1.414-1.414V72.546c0-.778.637-1.414 1.414-1.414h16.652c.78 0 1.415-.636 1.415-1.414V1.414c0-.778-.635-1.414-1.415-1.414h-16.652zM623.95 10.217c0 .777-.636 1.414-1.414 1.414h-3.09a1.418 1.418 0 0 1-1.415-1.414V7.124a1.42 1.42 0 0 1 1.414-1.414h3.091a1.42 1.42 0 0 1 1.414 1.414v3.093zM615.573 0c-.777 0-1.414.636-1.414 1.414v20.883c0 .778-.635 1.414-1.414 1.414h-16.652c-.778 0-1.414.636-1.414 1.414v20.882c0 .778-.635 1.414-1.414 1.414h-16.65a1.42 1.42 0 0 0-1.415 1.414v68.304a1.42 1.42 0 0 0 1.414 1.414h16.651c.78 0 1.414-.636 1.414-1.414V96.257c0-.778.636-1.414 1.414-1.414h16.652c.78 0 1.414-.638 1.414-1.414V72.546c0-.778.637-1.414 1.414-1.414h16.654c.778 0 1.414-.636 1.414-1.414V1.414c0-.778-.636-1.414-1.414-1.414h-16.654zm-85.572 10.217a1.42 1.42 0 0 1-1.414 1.414h-3.091c-.78 0-1.414-.637-1.414-1.414V7.124c0-.776.635-1.414 1.414-1.414h3.09a1.42 1.42 0 0 1 1.415 1.414v3.093zM521.625 0c-.779 0-1.414.636-1.414 1.414v20.883a1.42 1.42 0 0 1-1.414 1.414h-16.655a1.42 1.42 0 0 0-1.414 1.414v20.882c0 .778-.635 1.414-1.414 1.414h-16.65a1.42 1.42 0 0 0-1.413 1.414v68.304c0 .778.636 1.414 1.414 1.414h16.65c.778 0 1.413-.636 1.413-1.414V96.257a1.42 1.42 0 0 1 1.414-1.414h16.655a1.42 1.42 0 0 0 1.414-1.414V72.546c0-.778.635-1.414 1.414-1.414h16.652c.778 0 1.415-.636 1.415-1.414V1.414c0-.778-.637-1.414-1.415-1.414h-16.652zm-87.593 48.067c0 .778-.636 1.414-1.414 1.414h-2.414a1.418 1.418 0 0 1-1.414-1.414V45.23c0-.777.637-1.414 1.414-1.414h2.414c.778 0 1.414.637 1.414 1.414v2.837zm-6.218-7.363a1.42 1.42 0 0 0-1.414 1.414v18.073a1.42 1.42 0 0 0 1.414 1.414h16.514a1.42 1.42 0 0 0 1.414-1.414V42.118a1.42 1.42 0 0 0-1.414-1.414h-16.514zm6.218 57.386c0 .778-.636 1.414-1.414 1.414h-2.414a1.418 1.418 0 0 1-1.414-1.414v-2.837c0-.777.637-1.414 1.414-1.414h2.414c.778 0 1.414.637 1.414 1.414v2.837zm-6.218-7.363a1.42 1.42 0 0 0-1.414 1.414v18.073a1.42 1.42 0 0 0 1.414 1.414h16.514a1.42 1.42 0 0 0 1.414-1.414V92.141a1.42 1.42 0 0 0-1.414-1.414h-16.514z" fill="#000" fill-rule="evenodd"/></svg>